# xmcd
# Copyright (C) 1995-1998 Ti Kan
#
# Track frame offsets:
#       150
#       9360
#       34710
#       54880
#       76592
#       96125
#       114510
#       129387
#       152795
#       164702
#       180817
#       206497
#       228432
#       252885
#       270160
#       291075
#       302557
#       330372
#
# Disc length: 4644 seconds
#
# Revision: 0
# Processed by: cddbd v1.5.2PL0 Copyright (c) Steve Scherf et al.
# Submitted via: CD-Import v1.0
#
DISCID=d3122212
DTITLE=Wu-Tang Clan - Wu-Tang Forever
DYEAR=1997
DGENRE=
TTITLE0=Intro
TTITLE1=Triumph
TTITLE2=Impossible
TTITLE3=Little Ghetto Boys
TTITLE4=Deadly Melody 
TTITLE5=The City
TTITLE6=The Projects
TTITLE7=Bells Of War
TTITLE8=The M.g.m.
TTITLE9=Dog Shit
TTITLE10=Duck Seazon
TTITLE11=Hellz Wind Staff
TTITLE12=Heaterz
TTITLE13=Black Shampoo
TTITLE14=Second Coming
TTITLE15=The Closing
TTITLE16=Sunshower
TTITLE17=Projects International Remix
EXTD=
EXTT0=
EXTT1=
EXTT2=
EXTT3=
EXTT4=
EXTT5=
EXTT6=
EXTT7=
EXTT8=
EXTT9=
EXTT10=
EXTT11=
EXTT12=
EXTT13=
EXTT14=
EXTT15=
EXTT16=
EXTT17=
PLAYORDER=
